HIERARCHY
ROOT Hips
{
	OFFSET 0.000000 83.214638 0.000000
	CHANNELS 6 Xposition Yposition Zposition Xrotation Yrotation Zrotation
	JOINT Pelvis
	{
		OFFSET 0.000000 0.000000 0.000000
		CHANNELS 3 Xrotation Yrotation Zrotation
		JOINT LeftUpLeg
		{
			OFFSET 8.479700 -4.795502 -0.379100
			CHANNELS 3 Xrotation Yrotation Zrotation
			JOINT LeftLeg
			{
				OFFSET 0.024144 -32.555107 0.112900
				CHANNELS 3 Xrotation Yrotation Zrotation
				JOINT LeftFoot
				{
					OFFSET -0.024144 -32.638630 -3.012600
					CHANNELS 3 Xrotation Yrotation Zrotation
					JOINT LeftToeBase
					{
						OFFSET 0.970200 -13.225400 11.864200
						CHANNELS 3 Xrotation Yrotation Zrotation
						End Site
						{
							OFFSET 0.000000 12.319262 0.000000
						}
					}
					JOINT LFootTongue
					{
						OFFSET 1.142400 -1.059800 6.665200
						CHANNELS 3 Xrotation Yrotation Zrotation
						End Site
						{
							OFFSET 0.000000 12.319262 0.000000
						}
					}
				}
				JOINT LeftPantLeg
				{
					OFFSET 0.918482 -16.533964 -2.284700
					CHANNELS 3 Xrotation Yrotation Zrotation
					End Site
					{
						OFFSET 0.350399 24.744368 0.000000
					}
				}
			}
		}
		JOINT RightUpLeg
		{
			OFFSET -8.479700 -4.795502 -0.379100
			CHANNELS 3 Xrotation Yrotation Zrotation
			JOINT RightLeg
			{
				OFFSET -0.023144 -32.555092 0.112900
				CHANNELS 3 Xrotation Yrotation Zrotation
				JOINT RightFoot
				{
					OFFSET 0.023144 -32.638641 -3.012700
					CHANNELS 3 Xrotation Yrotation Zrotation
					JOINT RightToeBase
					{
						OFFSET -0.970200 -13.225400 11.864200
						CHANNELS 3 Xrotation Yrotation Zrotation
						End Site
						{
							OFFSET 0.000000 12.319244 0.000000
						}
					}
					JOINT RFootTongue
					{
						OFFSET -1.142200 -1.059800 6.665200
						CHANNELS 3 Xrotation Yrotation Zrotation
						End Site
						{
							OFFSET 0.000000 12.319243 0.000000
						}
					}
				}
				JOINT RightPantLeg
				{
					OFFSET -0.919482 -16.533978 -2.284800
					CHANNELS 3 Xrotation Yrotation Zrotation
					End Site
					{
						OFFSET -0.350400 24.744419 0.000000
					}
				}
			}
		}
	}
	JOINT Spine
	{
		OFFSET 0.000000 7.722000 1.166200
		CHANNELS 3 Xrotation Yrotation Zrotation
		JOINT Spine1
		{
			OFFSET 0.000000 12.024101 0.248800
			CHANNELS 3 Xrotation Yrotation Zrotation
			JOINT Spine2
			{
				OFFSET 0.000000 11.502998 -0.491200
				CHANNELS 3 Xrotation Yrotation Zrotation
				JOINT Neck
				{
					OFFSET 0.000000 18.430702 -3.123100
					CHANNELS 3 Xrotation Yrotation Zrotation
					JOINT Head
					{
						OFFSET 0.000000 9.051102 1.034000
						CHANNELS 3 Xrotation Yrotation Zrotation
						JOINT HairB
						{
							OFFSET 0.208400 24.786102 24.822300
							CHANNELS 3 Xrotation Yrotation Zrotation
							End Site
							{
								OFFSET 0.000000 32.263779 0.000000
							}
						}
						JOINT HairA
						{
							OFFSET -7.081100 24.428299 23.196600
							CHANNELS 3 Xrotation Yrotation Zrotation
							End Site
							{
								OFFSET 0.000000 32.263779 0.000000
							}
						}
						JOINT Hat
						{
							OFFSET 16.728800 15.048294 -15.439601
							CHANNELS 3 Xrotation Yrotation Zrotation
							End Site
							{
								OFFSET 0.000000 32.263779 0.000000
							}
						}
					}
				}
				JOINT LeftShoulder
				{
					OFFSET 6.197800 13.665199 -4.064700
					CHANNELS 3 Xrotation Yrotation Zrotation
					JOINT LeftArm
					{
						OFFSET 7.778100 -0.187103 -1.709300
						CHANNELS 3 Xrotation Yrotation Zrotation
						JOINT LeftForeArm
						{
							OFFSET 22.049376 0.000000 0.000000
							CHANNELS 3 Xrotation Yrotation Zrotation
							JOINT LeftHand
							{
								OFFSET 23.009392 0.000000 0.000000
								CHANNELS 3 Xrotation Yrotation Zrotation
								JOINT LeftHandThumb1
								{
									OFFSET 3.507191 -2.063065 3.133727
									CHANNELS 3 Xrotation Yrotation Zrotation
									JOINT LeftHandThumb2
									{
										OFFSET 3.101337 -1.790558 1.790558
										CHANNELS 3 Xrotation Yrotation Zrotation
										JOINT LeftHandThumb3
										{
											OFFSET 3.058640 -1.765907 1.765906
											CHANNELS 3 Xrotation Yrotation Zrotation
											End Site
											{
												OFFSET -0.415260 3.926476 -0.049563
											}
										}
									}
								}
								JOINT LeftHandIndex1
								{
									OFFSET 11.334419 -0.901459 3.706815
									CHANNELS 3 Xrotation Yrotation Zrotation
									JOINT LeftHandIndex2
									{
										OFFSET 3.283112 0.000000 0.000000
										CHANNELS 3 Xrotation Yrotation Zrotation
										JOINT LeftHandIndex3
										{
											OFFSET 3.323853 0.000000 0.000000
											CHANNELS 3 Xrotation Yrotation Zrotation
											End Site
											{
												OFFSET -1.135597 3.097809 0.402452
											}
										}
									}
								}
								JOINT LeftHandMiddle1
								{
									OFFSET 11.335861 0.000000 0.000000
									CHANNELS 3 Xrotation Yrotation Zrotation
									JOINT LeftHandMiddle2
									{
										OFFSET 3.410492 0.000000 0.000000
										CHANNELS 3 Xrotation Yrotation Zrotation
										JOINT LeftHandMiddle3
										{
											OFFSET 3.312172 0.000000 0.000000
											CHANNELS 3 Xrotation Yrotation Zrotation
											End Site
											{
												OFFSET -1.150200 3.080154 0.400270
											}
										}
									}
								}
								JOINT LeftHandRing1
								{
									OFFSET 11.514786 -0.013176 -3.003090
									CHANNELS 3 Xrotation Yrotation Zrotation
									JOINT LeftHandRing2
									{
										OFFSET 3.053307 0.000000 0.000000
										CHANNELS 3 Xrotation Yrotation Zrotation
										JOINT LeftHandRing3
										{
											OFFSET 3.295807 0.000000 0.000000
											CHANNELS 3 Xrotation Yrotation Zrotation
											End Site
											{
												OFFSET -1.281006 3.013344 0.375733
											}
										}
									}
								}
								JOINT LeftHandPinky1
								{
									OFFSET 10.518692 -0.960396 -5.730441
									CHANNELS 3 Xrotation Yrotation Zrotation
									JOINT LeftHandPinky2
									{
										OFFSET 2.861649 0.000000 0.000000
										CHANNELS 3 Xrotation Yrotation Zrotation
										JOINT LeftHandPinky3
										{
											OFFSET 2.863380 0.000000 0.000000
											CHANNELS 3 Xrotation Yrotation Zrotation
											End Site
											{
												OFFSET -0.843597 2.711159 0.369971
											}
										}
									}
								}
							}
							JOINT LSleeve
							{
								OFFSET 6.676277 -0.344902 -1.011730
								CHANNELS 3 Xrotation Yrotation Zrotation
								End Site
								{
									OFFSET 0.000000 14.885353 0.000000
								}
							}
						}
					}
				}
				JOINT RightShoulder
				{
					OFFSET -6.197800 13.665199 -4.064700
					CHANNELS 3 Xrotation Yrotation Zrotation
					JOINT RightArm
					{
						OFFSET -7.778100 -0.187103 -1.709300
						CHANNELS 3 Xrotation Yrotation Zrotation
						JOINT RightForeArm
						{
							OFFSET -22.049376 0.000000 0.000000
							CHANNELS 3 Xrotation Yrotation Zrotation
							JOINT RightHand
							{
								OFFSET -23.009392 0.000000 0.000000
								CHANNELS 3 Xrotation Yrotation Zrotation
								JOINT RightHandThumb1
								{
									OFFSET -3.507191 -2.063065 3.133727
									CHANNELS 3 Xrotation Yrotation Zrotation
									JOINT RightHandThumb2
									{
										OFFSET -3.101337 -1.790558 1.790558
										CHANNELS 3 Xrotation Yrotation Zrotation
										JOINT RightHandThumb3
										{
											OFFSET -3.058640 -1.765907 1.765906
											CHANNELS 3 Xrotation Yrotation Zrotation
											End Site
											{
												OFFSET 0.415260 3.926476 -0.049563
											}
										}
									}
								}
								JOINT RightHandIndex1
								{
									OFFSET -11.334419 -0.901459 3.706815
									CHANNELS 3 Xrotation Yrotation Zrotation
									JOINT RightHandIndex2
									{
										OFFSET -3.283112 0.000000 0.000000
										CHANNELS 3 Xrotation Yrotation Zrotation
										JOINT RightHandIndex3
										{
											OFFSET -3.323853 0.000000 0.000000
											CHANNELS 3 Xrotation Yrotation Zrotation
											End Site
											{
												OFFSET 1.135597 3.097809 0.402452
											}
										}
									}
								}
								JOINT RightHandMiddle1
								{
									OFFSET -11.335861 0.000000 0.000000
									CHANNELS 3 Xrotation Yrotation Zrotation
									JOINT RightHandMiddle2
									{
										OFFSET -3.410492 0.000000 0.000000
										CHANNELS 3 Xrotation Yrotation Zrotation
										JOINT RightHandMiddle3
										{
											OFFSET -3.312172 0.000000 0.000000
											CHANNELS 3 Xrotation Yrotation Zrotation
											End Site
											{
												OFFSET 1.150200 3.080154 0.400270
											}
										}
									}
								}
								JOINT RightHandRing1
								{
									OFFSET -11.514786 -0.013176 -3.003090
									CHANNELS 3 Xrotation Yrotation Zrotation
									JOINT RightHandRing2
									{
										OFFSET -3.053307 0.000000 0.000000
										CHANNELS 3 Xrotation Yrotation Zrotation
										JOINT RightHandRing3
										{
											OFFSET -3.295807 0.000000 0.000000
											CHANNELS 3 Xrotation Yrotation Zrotation
											End Site
											{
												OFFSET 1.281006 3.013344 0.375733
											}
										}
									}
								}
								JOINT RightHandPinky1
								{
									OFFSET -10.518692 -0.960396 -5.730441
									CHANNELS 3 Xrotation Yrotation Zrotation
									JOINT RightHandPinky2
									{
										OFFSET -2.861649 0.000000 0.000000
										CHANNELS 3 Xrotation Yrotation Zrotation
										JOINT RightHandPinky3
										{
											OFFSET -2.863380 0.000000 0.000000
											CHANNELS 3 Xrotation Yrotation Zrotation
											End Site
											{
												OFFSET 0.843597 2.711159 0.369971
											}
										}
									}
								}
							}
							JOINT RSleeve
							{
								OFFSET -6.676277 -0.344902 -1.011730
								CHANNELS 3 Xrotation Yrotation Zrotation
								End Site
								{
									OFFSET 0.000000 14.885353 0.000000
								}
							}
						}
					}
				}
				JOINT Backpack
				{
					OFFSET 0.000000 -2.471497 36.677502
					CHANNELS 3 Xrotation Yrotation Zrotation
					End Site
					{
						OFFSET 0.000000 20.427315 0.000000
					}
				}
				JOINT Hood
				{
					OFFSET 0.000000 18.754097 -10.431000
					CHANNELS 3 Xrotation Yrotation Zrotation
					JOINT Hood1
					{
						OFFSET 0.000000 -5.011002 -7.685901
						CHANNELS 3 Xrotation Yrotation Zrotation
						End Site
						{
							OFFSET 0.000000 9.175140 0.000000
						}
					}
				}
				JOINT LHoodieString
				{
					OFFSET 5.250500 16.397697 3.089900
					CHANNELS 3 Xrotation Yrotation Zrotation
					JOINT LHoodieString1
					{
						OFFSET 0.257700 -6.364304 3.694600
						CHANNELS 3 Xrotation Yrotation Zrotation
						JOINT LHoodieString2
						{
							OFFSET 0.000000 -9.643799 2.679100
							CHANNELS 3 Xrotation Yrotation Zrotation
							End Site
							{
								OFFSET 0.000000 10.009018 0.000000
							}
						}
					}
				}
				JOINT RHoodieString
				{
					OFFSET -5.250500 16.397697 3.089900
					CHANNELS 3 Xrotation Yrotation Zrotation
					JOINT RHoodieString1
					{
						OFFSET -0.257700 -6.364304 3.694600
						CHANNELS 3 Xrotation Yrotation Zrotation
						JOINT RHoodieString2
						{
							OFFSET 0.000000 -9.643799 2.679100
							CHANNELS 3 Xrotation Yrotation Zrotation
							End Site
							{
								OFFSET 0.000000 10.009018 0.000000
							}
						}
					}
				}
			}
			JOINT LBackpack_Strap
			{
				OFFSET 15.223200 -7.719803 -6.610900
				CHANNELS 3 Xrotation Yrotation Zrotation
				End Site
				{
					OFFSET 0.000000 16.040596 0.000000
				}
			}
			JOINT RBackpack_Strap
			{
				OFFSET -15.223000 -7.719803 -6.610900
				CHANNELS 3 Xrotation Yrotation Zrotation
				End Site
				{
					OFFSET 0.000000 16.040596 0.000000
				}
			}
		}
	}
	JOINT BoyFacialAnim_Joint
	{
		OFFSET 1.000000 -82.208099 -1.550900
		CHANNELS 3 Xrotation Yrotation Zrotation
		End Site
		{
			OFFSET 0.000000 30.012791 0.000000
		}
	}
}
MOTION
Frames: 4
Frame Time: 0.033333
1.591242 82.014175 -9.736512 -1.685076 3.618060 -0.515037 -0.000000 -0.000000 0.000000 -1.307409 10.205137 2.000440 14.802463 10.015158 -0.670293 -11.154625 15.265198 -2.671591 -0.000000 0.000002 0.000000 -0.000000 0.000002 0.000000 0.000001 0.000000 -0.000000 -12.932387 -9.163218 0.420400 12.663738 -9.998665 -6.774470 2.369563 -11.427228 4.472059 0.000000 0.000000 0.000000 0.000000 0.000000 0.000000 0.000000 -0.000002 0.000000 3.970560 1.061160 3.816325 1.998164 -0.602613 3.396799 1.952845 -0.608203 3.407479 16.138875 7.282463 4.584706 4.369559 39.038947 9.982129 0.000000 -0.000001 0.000003 0.000000 -0.000001 0.000003 0.000000 -0.000001 0.000003 1.535402 -18.137031 -8.873196 -29.168849 26.249986 -56.642697 0.000005 -29.583933 -0.000004 -25.227874 -18.290529 17.042044 1.128746 -0.309072 0.880347 11.905860 25.526654 17.026475 -0.000001 0.000000 -0.000000 1.432922 -7.712131 7.621559 0.218035 1.584886 -15.664084 -0.000001 0.000001 -0.000007 0.115976 1.136083 2.685907 0.190748 1.484158 -14.645058 -0.000001 -0.000000 -0.000003 0.110611 3.424908 -17.847513 0.351011 1.999164 -19.915034 -0.000000 -0.000004 -0.000003 1.107365 5.853989 -29.346362 0.254216 1.708679 -16.923703 -0.000001 -0.000000 0.000003 0.000001 0.000003 -0.000002 1.179826 13.691073 14.896019 -21.246613 -10.249185 49.675481 -0.000006 37.880260 0.000003 -5.773998 14.026761 -26.743295 -4.223348 3.965382 -2.654982 10.108000 -24.799321 -16.651441 0.000000 -0.000001 0.000000 2.159954 6.746013 -13.743321 0.110152 -1.007944 12.472429 -0.000003 0.000002 0.000007 0.147382 0.566937 -1.958065 0.072104 -0.817146 10.083661 0.000003 0.000001 -0.000000 0.210752 -3.649178 9.313981 0.146529 -1.160233 14.395583 -0.000001 0.000001 0.000001 1.321491 -6.449109 23.136369 0.122208 -1.060958 13.140297 -0.000002 -0.000002 -0.000000 -0.000000 -0.000000 0.000000 -0.000000 -0.000000 0.000001 -0.000000 -0.000000 0.000001 -0.000000 -0.000000 0.000001 -0.000000 -0.000000 0.000001 -0.000000 -0.000000 0.000001 -0.000000 0.000000 0.000001 -0.000000 -0.000000 0.000001 -0.000000 -0.000000 0.000001 -0.000000 0.000000 0.000001 0.000000 -0.000000 0.000001 0.000000 -0.000000 0.000001 -0.000000 -0.000000 0.000000 
1.085834 82.005127 -9.410742 -2.019753 3.598724 -0.606429 0.000000 -0.000000 0.000000 -0.777932 10.497050 2.626265 14.749761 10.015744 -0.630580 -11.077141 14.978543 -3.278128 -0.000000 0.000001 0.000000 -0.000000 0.000001 0.000000 -0.000000 0.000001 -0.000000 -12.423645 -9.256482 0.895355 13.072588 -9.993327 -6.611070 1.676926 -11.502701 4.059722 0.000000 -0.000000 -0.000000 0.000000 -0.000000 -0.000000 -0.000000 -0.000002 -0.000000 3.940185 1.056377 3.696136 1.962572 -0.597614 3.234058 1.918423 -0.602013 3.243767 16.042776 6.975035 4.541166 4.873114 37.495993 9.560118 -0.000001 -0.000001 -0.000001 -0.000001 -0.000001 -0.000001 -0.000001 -0.000001 -0.000001 1.539958 -18.409615 -8.956585 -27.227815 23.454262 -58.475756 -0.000001 -16.689103 -0.000000 -31.377684 -17.484301 11.933934 1.303295 1.413981 1.548688 11.917311 25.549612 17.019547 -0.000000 -0.000001 -0.000004 1.070466 -6.270955 6.529572 0.221889 1.598576 -15.802990 -0.000002 0.000001 -0.000005 0.067196 2.237545 0.839326 0.196791 1.507228 -14.878085 -0.000000 0.000000 -0.000005 0.241315 3.857986 -19.166592 0.352955 2.004531 -19.970626 -0.000003 0.000002 -0.000002 1.242366 6.088072 -29.854972 0.255445 1.712677 -16.964771 -0.000000 -0.000003 -0.000001 -0.000001 -0.000001 0.000001 1.115994 14.243145 15.256841 -18.303754 -5.542853 50.906332 0.000006 24.889266 -0.000029 -13.909889 13.833327 -19.671013 -4.216600 3.682756 -1.854091 9.581118 -23.719254 -16.744475 -0.000001 0.000002 -0.000001 2.455010 6.167631 -16.476443 0.114107 -1.025710 12.696257 -0.000006 0.000001 0.000005 0.280930 0.193012 -5.959260 0.078713 -0.853597 10.538523 -0.000001 0.000003 0.000000 0.161835 -3.607921 6.098510 0.160385 -1.212949 15.064887 -0.000000 0.000004 0.000003 0.913385 -6.361090 17.296759 0.129517 -1.091836 13.530011 0.000001 0.000005 0.000001 0.000000 0.000000 0.000001 -0.000000 0.000000 0.000000 -0.000000 0.000000 0.000000 -0.000000 0.000000 0.000000 -0.000000 0.000000 0.000000 -0.000000 0.000000 0.000000 -0.000000 -0.000000 0.000001 -0.000000 0.000000 0.000000 -0.000000 0.000000 0.000000 -0.000000 -0.000000 0.000001 0.000000 -0.000000 -0.000000 0.000000 -0.000000 -0.000000 0.000000 -0.000000 0.000000 
0.545719 81.991661 -9.043968 -2.305340 3.574641 -0.741395 0.000000 -0.000000 -0.000000 -0.285910 10.806720 3.318535 14.688525 10.016500 -0.564857 -10.997334 14.686177 -3.941516 -0.000000 -0.000001 -0.000000 -0.000000 -0.000001 -0.000000 -0.000001 -0.000002 0.000001 -11.882942 -9.300983 1.487653 13.401627 -9.989561 -6.496393 0.987373 -11.634340 3.644662 0.000000 0.000002 0.000000 0.000000 0.000002 0.000000 -0.000000 0.000000 -0.000000 3.912573 1.060639 3.571733 1.930469 -0.576912 3.066888 1.887736 -0.579816 3.075720 15.803545 6.597080 4.525808 5.234723 35.624515 9.043042 0.000002 0.000001 -0.000002 0.000002 0.000001 -0.000002 0.000002 0.000001 -0.000002 1.529655 -18.654010 -9.130194 -24.393566 20.478669 -60.607718 0.000001 -6.487298 0.000001 -36.209609 -15.406945 7.445700 1.839806 3.549314 2.342802 12.096255 25.906163 16.910215 0.000004 -0.000001 0.000002 0.568512 -4.451481 3.956066 0.226365 1.614249 -15.962220 -0.000003 0.000001 0.000002 0.114830 3.662178 -2.338857 0.203371 1.531733 -15.125823 -0.000001 0.000000 -0.000003 0.514017 4.613550 -21.261913 0.357035 2.015724 -20.087031 -0.000002 -0.000003 -0.000004 1.625338 6.720390 -31.154183 0.258022 1.721127 -17.050889 0.000004 -0.000001 -0.000002 -0.000000 0.000001 0.000001 1.028555 15.032125 15.727397 -13.546509 -0.152681 51.637828 -0.000006 15.140900 0.000012 -20.140942 11.538788 -12.482598 -3.637264 2.632709 -1.579614 8.544573 -21.544165 -16.908943 0.000001 0.000001 0.000001 2.910086 5.727503 -20.284671 0.116517 -1.036306 12.829613 -0.000000 0.000001 0.000005 0.262331 -0.723588 -11.177500 0.089263 -0.908429 11.224152 -0.000002 0.000003 -0.000001 0.085946 -4.323793 1.107380 0.177397 -1.274458 15.848689 -0.000001 -0.000001 0.000005 0.290191 -6.931968 8.214384 0.140527 -1.136585 14.095826 0.000000 -0.000001 -0.000000 -0.000000 0.000001 -0.000001 0.000001 0.000000 0.000000 0.000001 0.000000 0.000000 0.000001 0.000000 0.000000 0.000001 0.000000 0.000000 0.000001 0.000000 0.000000 0.000001 0.000000 0.000000 0.000001 0.000000 0.000000 0.000001 0.000000 0.000000 0.000001 0.000000 0.000000 0.000000 0.000000 0.000000 0.000000 0.000000 0.000000 0.000000 -0.000000 -0.000000 
-0.018770 81.975182 -8.631966 -2.516815 3.591821 -0.888697 -0.000000 0.000000 0.000000 0.182863 11.112654 4.031256 14.547381 10.017105 -0.475465 -10.885302 14.366289 -4.644884 -0.000000 0.000000 0.000000 -0.000000 0.000000 0.000000 -0.000000 0.000001 0.000000 -11.348477 -9.307216 2.152984 13.674448 -9.986457 -6.441088 0.290769 -11.850122 3.247858 -0.000000 -0.000000 -0.000000 -0.000000 -0.000000 -0.000000 -0.000000 0.000003 -0.000000 3.903038 1.083095 3.448830 1.915239 -0.526483 2.903540 1.873998 -0.527582 2.912160 15.385508 6.157589 4.489102 5.266182 33.426877 8.506417 -0.000001 -0.000003 -0.000000 -0.000001 -0.000003 -0.000000 -0.000001 -0.000003 -0.000000 1.496157 -18.727629 -9.394980 -20.916483 17.945031 -63.108632 -0.000000 -0.576729 0.000005 -38.329468 -12.649954 5.014095 2.130326 5.130518 3.122691 12.201701 26.114320 16.845873 0.000001 -0.000001 -0.000002 0.485695 -3.125515 2.277149 0.229564 1.625485 -16.076302 -0.000005 0.000000 -0.000003 0.201559 4.354447 -4.369702 0.208647 1.551077 -15.321629 0.000002 0.000003 -0.000004 0.749741 5.175125 -22.579279 0.361306 2.027383 -20.208443 0.000001 -0.000001 -0.000004 1.832999 7.034914 -31.922662 0.260366 1.728737 -17.128561 -0.000001 -0.000001 0.000001 -0.000000 0.000001 -0.000000 0.907178 15.858396 16.347803 -7.616118 4.721551 52.076227 -0.000011 9.662455 0.000004 -21.322777 7.079577 -5.643012 -3.026693 1.601611 -1.475789 7.905445 -20.170423 -16.997923 0.000000 0.000001 -0.000004 3.039311 5.275757 -22.033910 0.118411 -1.044632 12.934446 -0.000000 0.000002 0.000002 0.107206 -1.462134 -14.370457 0.098579 -0.954133 11.796859 0.000001 0.000001 -0.000002 -0.061994 -4.874914 -2.452941 0.189130 -1.315055 16.367659 0.000001 0.000001 0.000000 -0.304419 -7.040338 1.970511 0.149587 -1.172093 14.545830 -0.000001 0.000001 0.000000 0.000001 -0.000001 0.000000 0.000000 -0.000000 0.000000 0.000000 -0.000000 0.000000 0.000000 -0.000000 0.000000 0.000000 -0.000000 0.000000 0.000000 -0.000000 -0.000001 0.000000 -0.000000 -0.000001 0.000000 -0.000000 0.000000 0.000000 -0.000000 -0.000001 0.000000 -0.000000 -0.000001 -0.000000 0.000000 0.000000 -0.000000 0.000000 0.000000 -0.000000 0.000000 0.000000 
